# xmcd CD database file
#
# Track frame offsets:
#	150
#	22667
#	41600
#
# Disc length: 852 seconds
#
# Revision: 1
# Processed by: cddbd v1.4PL0 Copyright (c) Steve Scherf et al.
# Submitted via: CDex 1.50Beta5
#
DISCID=15035203
DTITLE=NAGASAKU HIROMI - MY HOME TOWN
DYEAR=1900
DGENRE=Jazz
TTITLE0=MY HOME TOWN
TTITLE1=TODOKANU OMOI
TTITLE2=MY HOME TOWN(BACK TRACKING)
EXTD=
EXTT0=
EXTT1=
EXTT2=
PLAYORDER=
